{"glyphs":{"0":{"ha":860,"x_min":0,"x_max":0,"o":""},"1":{"ha":584,"x_min":0,"x_max":0,"o":""},"2":{"ha":806,"x_min":0,"x_max":0,"o":""},"3":{"ha":854,"x_min":0,"x_max":0,"o":""},"4":{"ha":887,"x_min":0,"x_max":0,"o":""},"5":{"ha":733,"x_min":0,"x_max":0,"o":""},"6":{"ha":806,"x_min":0,"x_max":0,"o":""},"7":{"ha":711,"x_min":0,"x_max":0,"o":""},"8":{"ha":806,"x_min":0,"x_max":0,"o":""},"9":{"ha":843,"x_min":0,"x_max":0,"o":""}," ":{"ha":612,"x_min":0,"x_max":0,"o":""},"!":{"ha":371,"x_min":0,"x_max":0,"o":""},"\"":{"ha":450,"x_min":0,"x_max":0,"o":""},"#":{"ha":913,"x_min":0,"x_max":0,"o":""},"$":{"ha":752,"x_min":0,"x_max":0,"o":""},"%":{"ha":831,"x_min":0,"x_max":0,"o":""},"&":{"ha":721,"x_min":0,"x_max":0,"o":""},"'":{"ha":244,"x_min":0,"x_max":0,"o":""},"(":{"ha":564,"x_min":0,"x_max":0,"o":""},")":{"ha":542,"x_min":0,"x_max":0,"o":""},"*":{"ha":334,"x_min":0,"x_max":0,"o":""},"+":{"ha":749,"x_min":0,"x_max":0,"o":""},",":{"ha":314,"x_min":0,"x_max":0,"o":""},"-":{"ha":694,"x_min":0,"x_max":0,"o":""},".":{"ha":298,"x_min":0,"x_max":0,"o":""},"/":{"ha":642,"x_min":0,"x_max":0,"o":""},":":{"ha":363,"x_min":0,"x_max":0,"o":""},";":{"ha":380,"x_min":0,"x_max":0,"o":""},"<":{"ha":478,"x_min":0,"x_max":0,"o":""},"=":{"ha":733,"x_min":0,"x_max":0,"o":""},">":{"ha":477,"x_min":0,"x_max":0,"o":""},"?":{"ha":664,"x_min":0,"x_max":0,"o":""},"@":{"ha":1048,"x_min":0,"x_max":0,"o":""},"A":{"ha":880,"x_min":47,"x_max":787,"o":"m 731 -68 q 758 -54 743 -68 q 782 -23 775 -41 q 787 18 787 -9 q 777 165 787 60 q 768 277 772 205 q 754 513 764 348 q 693 923 739 791 q 555 1080 647 1054 q 519 1084 538 1084 q 358 1000 448 1084 q 197 741 269 916 q 187 718 192 728 q 155 635 170 678 q 89 397 117 522 q 62 252 71 313 q 50 156 52 187 q 47 76 47 125 q 58 -18 47 7 q 100 -48 68 -43 q 114 -50 107 -50 q 176 79 170 -50 q 201 289 181 189 l 203 302 q 210 310 203 307 q 238 318 217 314 q 399 339 262 323 l 473 348 q 549 357 505 353 l 555 358 q 587 361 573 360 q 603 363 600 363 q 608 364 606 364 q 617 359 614 364 q 628 274 623 353 q 637 140 633 195 l 646 36 q 657 -27 649 -8 q 683 -58 665 -47 q 718 -68 699 -68 l 731 -68 m 243 456 q 246 475 244 466 q 256 514 248 484 q 290 616 278 589 q 309 663 294 625 q 422 871 358 789 q 519 946 480 946 q 578 825 552 946 q 612 547 602 717 q 613 536 612 541 l 614 522 q 613 510 614 515 q 602 501 612 504 q 555 494 588 497 q 331 467 444 483 l 299 463 q 243 456 279 460 z "},"B":{"ha":924,"x_min":87,"x_max":867,"o":"m 173 -94 q 229 -51 207 -94 l 231 -46 q 240 -32 236 -36 q 250 -28 243 -28 q 288 -36 258 -28 l 296 -38 q 417 -52 356 -52 q 548 -37 467 -52 q 718 37 629 -21 q 846 179 806 94 q 860 215 856 201 q 866 244 865 229 q 867 286 867 259 q 825 422 867 363 q 701 518 782 482 q 671 537 671 530 q 688 557 671 543 q 739 610 720 587 q 772 659 758 633 q 811 796 811 731 q 797 880 811 823 q 704 996 783 937 q 507 1072 625 1055 q 436 1077 473 1077 q 227 1041 341 1077 q 145 1011 174 1027 q 104 954 117 994 q 89 829 92 913 q 87 650 87 760 q 92 155 87 283 q 111 -26 97 28 q 149 -90 124 -81 q 173 -94 161 -94 m 385 111 q 321 116 335 111 q 260 133 279 123 q 238 168 242 142 q 233 259 233 198 q 226 718 226 480 q 226 818 226 755 q 231 889 227 880 q 317 925 250 914 q 416 932 364 932 q 488 929 438 932 q 586 904 538 926 q 663 799 663 862 q 660 757 663 794 q 586 660 657 720 q 397 581 515 599 q 318 549 344 572 q 295 503 295 528 q 296 486 295 500 q 325 450 296 471 q 406 430 353 430 q 573 406 504 430 q 676 344 642 382 q 708 271 708 309 q 707 245 708 268 q 662 184 705 222 q 529 123 618 147 q 466 115 507 118 q 385 111 425 111 z "},"C":{"ha":815,"x_min":52,"x_max":792,"o":"m 404 -68 q 561 -16 475 -68 q 756 202 646 37 q 792 298 792 258 q 788 330 792 305 q 744 354 783 354 q 656 296 706 354 q 373 92 492 92 q 254 174 305 92 q 202 469 202 256 q 249 763 202 646 q 373 916 296 880 q 433 930 402 930 q 544 892 486 930 q 622 857 595 857 q 660 875 643 857 q 677 916 677 894 q 653 972 677 937 q 561 1042 629 1007 q 423 1074 496 1074 l 414 1074 q 226 989 307 1068 q 98 775 144 911 q 52 465 52 640 q 335 -59 52 18 q 404 -68 370 -68 z "},"D":{"ha":870,"x_min":86,"x_max":798,"o":"m 280 -85 q 486 -34 380 -85 q 675 131 592 16 q 787 393 759 245 q 798 510 798 451 q 772 699 798 602 q 630 947 727 848 q 407 1081 533 1046 q 296 1096 352 1096 q 151 1072 224 1096 q 111 1043 125 1064 q 91 964 96 1021 q 86 813 86 912 q 93 469 86 722 q 103 117 100 180 q 115 -13 106 27 q 140 -63 123 -53 q 186 -77 157 -74 l 205 -79 q 280 -85 243 -85 m 273 62 l 264 62 q 250 63 254 62 q 240 389 245 63 q 235 651 237 527 q 228 861 232 776 q 226 913 226 893 q 227 938 226 924 q 237 955 228 951 q 264 959 247 959 l 291 958 q 505 876 421 955 q 623 677 588 797 q 647 511 647 596 q 636 389 647 472 q 555 207 625 305 q 357 74 484 109 q 273 62 311 63 z "},"E":{"ha":665,"x_min":80,"x_max":671,"o":"m 273 -79 q 382 -74 311 -79 q 534 -59 454 -69 q 640 -38 614 -48 q 671 13 671 -20 q 641 63 671 45 q 627 68 635 66 q 602 70 618 70 q 471 60 584 69 q 303 51 357 51 q 256 56 262 51 q 243 246 250 76 q 239 386 239 335 q 241 425 239 420 q 302 435 247 430 q 428 449 387 441 q 480 469 469 456 q 492 509 492 482 q 479 548 492 534 q 432 564 467 561 q 403 564 419 564 q 334 562 374 564 q 300 558 315 560 q 275 556 286 556 q 247 563 259 556 q 229 614 234 569 q 222 764 224 659 l 216 943 q 229 945 222 944 q 279 947 235 947 q 385 946 323 947 l 456 945 q 518 947 488 945 q 563 956 548 948 q 585 982 578 964 q 590 1005 590 994 q 529 1060 590 1041 q 350 1080 467 1080 q 283 1078 319 1080 q 136 1055 181 1077 q 84 952 92 1034 q 80 846 80 911 q 84 689 80 780 q 93 426 92 482 q 108 132 98 261 l 111 71 q 139 -43 114 -14 q 235 -77 163 -73 q 273 -79 252 -79 z "},"F":{"ha":597,"x_min":80,"x_max":644,"o":"m 190 -77 q 224 -67 206 -77 q 243 -52 237 -61 q 253 3 253 -40 q 245 192 253 42 q 235 478 237 341 l 342 482 q 446 489 411 484 q 491 507 480 494 q 503 543 503 519 q 489 582 503 568 q 440 601 476 595 q 336 608 404 606 l 292 608 q 249 611 264 608 q 230 633 233 614 q 225 693 226 651 l 221 793 q 218 870 218 841 q 219 901 218 882 q 232 926 220 920 q 267 932 243 932 l 272 932 l 436 943 q 572 954 536 950 q 612 965 596 957 q 644 1013 644 983 q 642 1035 644 1017 q 603 1071 641 1053 q 524 1077 585 1077 q 352 1069 460 1077 q 195 1054 264 1063 q 111 1036 125 1045 q 80 802 80 1017 q 96 343 80 640 q 112 92 104 177 q 131 -26 119 7 q 162 -69 142 -59 q 190 -77 176 -77 z "},"G":{"ha":803,"x_min":45,"x_max":781,"o":"m 405 -65 q 533 -31 463 -65 q 658 92 603 4 q 718 294 713 179 l 718 332 l 735 336 q 781 391 781 353 q 781 412 781 392 q 732 449 780 432 q 639 456 701 456 q 583 455 629 456 q 464 446 537 454 q 376 427 391 438 q 354 383 354 402 q 380 346 354 366 q 505 326 406 326 q 578 324 559 326 q 593 318 593 323 q 562 201 593 257 q 482 111 530 145 q 389 79 437 79 l 383 79 q 240 188 291 89 q 189 435 189 287 q 246 732 189 581 q 455 945 327 945 q 574 905 511 945 q 624 890 602 890 q 658 901 637 890 q 679 948 679 911 q 645 1012 679 980 q 460 1086 559 1086 q 284 1025 369 1086 q 140 846 199 965 q 45 437 45 640 q 119 122 45 258 q 338 -56 193 -14 q 405 -65 372 -65 z "},"H":{"ha":867,"x_min":93,"x_max":760,"o":"m 174 -70 q 202 -63 186 -70 q 227 -35 218 -56 q 233 20 233 -24 q 232 91 233 45 q 229 213 231 138 q 228 333 228 277 q 229 410 228 389 q 232 454 231 432 q 482 450 452 450 l 498 450 q 578 446 551 450 q 612 422 606 441 q 616 374 616 406 l 616 358 q 623 117 616 293 q 631 14 626 46 q 648 -29 637 -18 q 677 -45 659 -39 q 709 -52 696 -52 q 738 -40 724 -52 q 760 123 760 -22 q 758 228 760 168 q 748 572 752 431 q 740 803 744 713 q 731 943 736 892 q 719 1016 726 994 q 701 1044 711 1038 q 675 1051 690 1050 q 656 1053 665 1053 q 625 1041 637 1053 q 608 970 612 1029 q 606 844 606 926 l 607 576 q 304 590 368 590 l 287 590 q 234 591 237 590 q 228 822 231 599 q 224 980 227 923 q 216 1061 222 1036 q 198 1090 210 1086 q 168 1095 186 1095 l 155 1095 q 123 1089 135 1095 q 105 1053 111 1082 q 97 959 99 1024 q 93 547 93 838 q 111 -12 93 123 q 126 -46 113 -31 q 155 -67 139 -62 q 174 -70 165 -70 z "},"I":{"ha":411,"x_min":41,"x_max":348,"o":"m 141 -71 q 174 -71 148 -71 q 245 -63 199 -70 q 313 -47 291 -57 q 348 -2 348 -28 q 340 28 348 5 q 271 66 332 50 q 261 166 265 72 q 254 490 254 298 q 260 833 254 597 q 266 950 261 922 q 272 966 268 962 q 281 972 275 970 l 283 972 q 309 985 301 980 q 323 1002 316 990 q 334 1032 334 1019 q 314 1065 334 1048 q 232 1085 293 1082 l 212 1086 q 90 1070 157 1086 q 41 1019 41 1057 q 54 983 41 1003 q 106 955 67 964 q 125 950 119 952 q 132 946 131 948 q 134 941 134 943 l 134 937 q 125 507 125 819 q 133 171 125 241 q 136 132 134 155 q 140 54 138 109 l 121 48 q 63 -15 63 28 q 98 -66 63 -45 q 141 -71 110 -71 z "},"J":{"ha":590,"x_min":-37,"x_max":532,"o":"m 222 -71 q 383 0 319 -71 q 478 478 478 104 q 465 799 478 618 q 458 939 460 880 l 481 946 q 526 981 514 957 q 532 1008 532 995 q 525 1038 532 1019 q 485 1065 517 1056 q 450 1068 473 1068 q 410 1067 438 1068 q 338 1059 381 1065 q 277 1046 294 1053 q 244 996 244 1027 q 249 967 244 990 q 299 929 253 945 l 318 924 q 320 892 319 907 q 323 844 321 876 q 326 778 324 812 q 329 680 327 743 q 333 557 331 618 q 336 433 336 490 q 319 210 336 306 q 186 77 296 77 q 77 99 140 77 q 24 109 47 109 q -19 96 -1 109 q -37 60 -37 83 q -28 26 -37 45 q 48 -31 -12 -3 q 175 -68 109 -58 q 222 -71 199 -71 z "},"K":{"ha":783,"x_min":87,"x_max":767,"o":"m 178 -71 q 186 -70 182 -71 q 193 -69 189 -69 q 199 -68 197 -68 l 203 -68 q 239 -24 231 -68 q 245 67 245 4 q 239 276 245 98 q 237 364 237 328 q 342 475 302 430 q 364 498 355 489 q 375 508 374 508 q 435 424 386 508 q 538 231 484 339 q 625 42 593 123 q 677 -56 654 -34 q 707 -68 690 -68 q 733 -62 719 -68 q 767 -6 767 -47 q 705 183 767 39 q 696 204 701 192 q 618 365 669 271 q 529 518 572 448 q 468 605 486 588 q 462 616 462 609 q 479 649 462 624 q 558 780 519 709 q 619 901 597 850 q 635 940 630 930 q 655 1012 655 982 q 627 1067 655 1048 q 599 1076 613 1076 q 531 1012 556 1076 q 512 966 521 984 l 493 926 q 427 809 469 877 q 341 677 385 741 q 235 547 251 547 q 233 550 233 547 q 229 693 233 554 q 214 997 222 923 q 202 1058 210 1039 q 182 1082 195 1078 q 151 1086 170 1086 q 114 1080 127 1086 q 95 1050 100 1074 q 87 938 87 1019 q 95 561 87 859 q 111 20 104 156 q 162 -68 115 -56 q 178 -71 170 -71 z "},"L":{"ha":697,"x_min":79,"x_max":712,"o":"m 243 -72 q 334 -64 273 -72 q 489 -45 428 -51 q 633 -26 585 -36 q 697 -3 682 -17 q 712 37 712 12 q 679 83 712 69 q 589 96 650 96 q 531 94 577 96 q 345 73 484 92 l 326 71 q 285 66 300 66 q 267 69 272 66 q 258 103 258 75 l 259 118 q 258 197 259 161 q 250 324 256 243 l 227 654 q 218 812 222 721 q 209 960 214 903 q 195 1045 203 1016 q 173 1084 187 1074 q 138 1094 159 1094 q 102 1074 116 1094 q 79 884 79 1038 l 79 810 q 113 233 81 670 l 119 101 q 136 -16 121 18 q 193 -63 151 -49 q 243 -72 213 -72 z "},"M":{"ha":1009,"x_min":90,"x_max":885,"o":"m 819 -71 q 874 -33 853 -71 l 885 -12 l 880 283 q 850 1053 865 984 q 798 1092 831 1092 q 772 1088 793 1092 q 726 1034 751 1085 q 718 1015 723 1025 q 581 600 667 908 q 461 254 485 254 q 422 333 450 254 q 357 551 395 412 q 279 863 319 690 l 271 903 l 256 964 q 245 1021 246 1002 q 180 1086 231 1086 q 111 1034 140 1086 q 98 858 104 1012 q 90 319 90 617 q 92 115 90 231 q 100 -24 93 -1 q 140 -66 113 -54 q 163 -71 151 -71 q 224 -22 205 -71 q 233 223 230 -17 q 241 445 234 445 q 244 444 241 445 q 256 406 246 443 q 363 159 310 229 q 454 106 405 106 q 557 161 514 106 q 623 294 590 201 q 700 552 656 387 l 703 564 q 728 640 722 640 q 735 600 733 640 q 741 446 738 561 q 741 416 741 431 q 752 84 748 180 q 760 -22 755 -12 q 819 -71 776 -71 z "},"N":{"ha":894,"x_min":90,"x_max":793,"o":"m 180 -77 q 216 -64 195 -77 q 244 -6 238 -50 q 245 36 245 3 q 244 150 245 68 q 240 366 243 233 q 234 587 237 498 q 233 632 233 614 q 237 663 233 663 l 239 662 q 269 578 243 661 q 487 88 385 224 q 623 -2 555 -2 q 690 20 656 -2 q 764 170 738 54 q 793 490 793 298 q 772 826 793 646 q 751 959 761 915 q 728 1018 742 1004 q 688 1032 713 1032 q 639 1007 654 1032 q 627 963 627 989 q 629 940 627 952 q 657 690 641 874 q 663 528 663 612 q 656 340 663 459 q 621 140 649 208 l 602 161 q 523 293 570 195 q 494 355 509 321 q 452 460 479 390 q 448 472 450 465 q 443 486 445 479 q 437 499 440 492 q 433 511 435 507 q 425 533 431 515 q 412 575 419 551 l 411 576 q 396 620 403 602 q 388 643 389 639 q 379 668 386 648 q 363 714 372 688 q 342 775 354 741 q 321 836 330 809 q 303 885 313 857 q 285 939 294 913 l 279 956 q 250 1030 262 1006 q 222 1063 238 1055 q 175 1076 205 1072 q 150 1078 161 1078 q 123 1073 136 1078 q 99 1044 110 1067 l 90 1023 q 97 313 94 454 q 105 82 100 162 q 120 -29 111 3 q 144 -67 130 -60 q 180 -77 163 -77 z "},"O":{"ha":928,"x_min":39,"x_max":851,"o":"m 446 -63 q 621 -5 534 -63 q 771 177 709 54 q 848 454 834 300 q 851 520 851 487 q 813 762 851 641 q 660 1009 755 930 q 458 1088 565 1088 q 402 1087 457 1088 q 251 1015 347 1087 q 95 808 155 943 q 39 502 39 680 l 39 486 q 142 119 47 266 q 393 -59 237 -28 q 446 -63 420 -63 m 443 87 q 352 115 405 87 q 250 227 300 144 q 180 419 200 311 q 172 513 172 466 q 186 639 172 576 q 195 678 191 654 q 315 901 234 833 q 435 949 372 949 q 516 931 459 949 q 641 785 574 914 q 696 526 696 666 q 696 452 696 524 q 646 263 696 380 q 508 101 597 146 q 443 87 475 87 z "},"P":{"ha":810,"x_min":89,"x_max":784,"o":"m 172 -67 q 177 -66 174 -67 q 189 -63 181 -66 q 224 -40 213 -56 q 237 20 235 -24 q 239 76 239 43 q 237 155 239 110 q 235 254 235 201 q 236 280 235 263 q 244 297 236 297 q 269 284 252 297 q 373 256 317 256 q 481 279 410 256 q 637 390 551 301 q 762 604 723 479 q 784 751 784 682 q 754 902 784 816 q 635 1045 724 988 q 497 1087 570 1087 q 402 1073 469 1087 q 246 937 335 1059 q 227 915 231 915 q 223 917 226 915 q 221 960 221 920 q 205 1048 221 1021 q 153 1076 189 1076 q 120 1070 133 1076 q 100 1041 107 1064 q 89 863 89 1004 q 100 245 89 732 q 115 -13 104 37 q 130 -50 120 -41 q 153 -62 139 -59 l 161 -65 q 172 -67 167 -67 m 375 387 q 321 406 351 387 q 245 514 292 424 q 229 579 229 544 q 233 601 229 595 q 243 627 237 608 q 262 684 254 665 q 276 721 267 693 q 399 917 329 856 q 502 963 452 963 q 559 950 518 963 q 638 831 600 938 q 644 750 644 809 q 637 652 644 680 q 554 494 611 563 q 427 399 497 425 q 375 387 399 387 z "},"Q":{"ha":986,"x_min":43,"x_max":946,"o":"m 445 -62 q 680 39 568 -62 q 700 57 694 52 q 711 62 707 62 q 720 58 714 62 q 790 19 747 41 q 859 -14 833 -3 q 888 -19 875 -19 q 926 -7 906 -19 q 946 42 946 5 q 940 70 946 58 q 912 96 934 81 q 845 134 890 111 q 792 172 800 157 q 789 183 789 176 q 800 219 789 197 q 858 509 858 362 q 855 611 858 523 q 791 831 852 699 q 632 1035 731 964 q 468 1088 557 1088 q 409 1083 439 1088 q 177 933 264 1048 q 60 661 90 817 q 43 498 43 580 q 64 310 43 425 q 171 83 85 196 q 401 -59 257 -30 q 445 -62 423 -62 m 452 86 q 370 106 416 86 q 293 161 323 127 q 277 197 277 180 q 288 222 277 211 q 370 250 316 243 q 405 252 389 252 q 462 243 437 252 q 564 189 517 220 q 589 164 589 171 q 572 140 589 156 q 529 110 555 125 q 480 89 503 95 q 452 86 467 86 m 659 286 l 658 286 q 631 300 652 286 q 395 382 517 382 q 319 375 348 382 q 248 347 290 368 q 217 335 227 335 q 210 337 215 335 q 199 374 205 340 q 184 522 184 448 q 201 681 184 584 q 290 865 219 778 q 440 952 364 952 q 501 943 452 952 q 615 839 550 935 q 700 601 680 743 q 705 520 705 561 q 670 304 705 416 q 659 286 665 287 z "},"R":{"ha":861,"x_min":82,"x_max":830,"o":"m 191 -68 q 212 -65 195 -68 q 241 -41 228 -63 q 250 -20 247 -31 q 252 20 252 -8 q 241 245 252 61 q 240 288 240 273 q 240 304 240 294 q 245 317 241 315 q 255 320 250 320 q 265 319 259 320 q 280 318 271 318 q 310 319 290 318 q 358 323 330 320 q 403 331 387 327 l 426 336 q 639 69 503 244 q 702 -12 678 16 q 740 -49 725 -39 q 768 -59 755 -59 q 818 -35 800 -59 q 830 1 830 -18 q 827 18 830 9 q 778 97 819 37 q 688 222 737 157 q 606 323 639 287 l 557 385 l 590 406 q 762 627 728 498 q 774 713 774 671 q 721 893 774 795 q 511 1057 668 991 q 296 1093 410 1093 q 147 1065 201 1093 q 100 1034 114 1048 q 83 986 85 1019 q 82 944 82 970 q 83 884 82 918 q 98 384 93 495 q 118 41 111 124 q 130 -24 122 -6 q 153 -54 138 -43 q 191 -68 170 -68 m 262 467 l 255 469 q 240 472 245 469 q 232 490 235 476 q 223 677 227 516 q 216 895 220 800 q 214 934 214 920 q 215 947 214 939 q 219 957 215 956 q 267 962 230 962 q 294 962 271 962 q 366 955 318 961 q 440 939 414 948 q 604 810 560 890 q 629 720 629 765 q 606 626 629 685 q 469 511 582 568 q 316 472 406 479 q 262 467 267 467 z "},"S":{"ha":791,"x_min":31,"x_max":730,"o":"m 414 -64 q 571 -19 492 -64 q 697 115 650 26 q 730 239 730 174 q 722 300 730 269 q 636 442 703 387 q 412 558 569 498 q 193 687 245 623 q 165 762 165 721 q 186 837 165 797 q 346 941 240 941 q 460 908 397 941 q 578 783 524 876 q 610 736 596 748 q 649 725 625 725 q 706 785 706 725 q 694 844 706 808 q 647 929 683 881 q 558 1015 611 978 q 365 1076 467 1076 q 250 1058 309 1076 q 79 918 142 1021 q 31 759 31 840 q 36 708 31 734 q 130 548 55 614 q 366 414 204 481 q 528 328 487 365 q 567 243 567 293 l 567 236 q 529 142 567 176 q 400 96 479 96 q 192 184 286 96 q 118 222 149 222 q 92 218 112 222 q 69 170 72 213 l 69 165 q 111 71 69 123 q 368 -61 195 -32 q 414 -64 391 -64 z "},"T":{"ha":674,"x_min":-25,"x_max":829,"o":"m 382 -68 q 402 -63 389 -68 q 431 -50 421 -58 q 446 -17 440 -41 q 456 208 455 26 q 457 495 457 302 q 463 924 457 924 q 616 930 470 928 q 781 938 768 932 q 829 998 829 959 q 828 1023 829 1000 q 772 1062 827 1045 q 658 1065 762 1065 q 166 1059 528 1065 q 55 1055 92 1058 q 4 1042 18 1052 q -18 1012 -10 1032 q -25 983 -25 996 q 9 944 -25 958 q 180 929 44 929 l 228 929 l 256 930 q 314 918 303 930 q 326 859 326 905 q 324 821 326 842 q 319 299 319 743 l 319 233 q 319 100 319 153 q 321 19 319 48 q 325 -25 322 -11 q 334 -45 328 -39 q 349 -54 340 -50 l 355 -58 q 382 -68 374 -68 z "},"U":{"ha":899,"x_min":82,"x_max":802,"o":"m 410 -86 q 536 -48 466 -86 q 666 76 607 -11 q 774 363 742 187 q 802 734 802 513 q 794 987 802 909 q 772 1062 788 1045 q 738 1076 760 1076 q 680 1058 696 1076 q 662 993 666 1043 q 659 836 659 943 q 593 239 659 384 q 417 61 517 61 q 323 111 374 61 q 225 486 238 192 q 220 764 220 610 q 226 953 220 880 q 229 996 229 977 q 224 1033 229 1016 q 199 1059 220 1050 q 167 1067 183 1067 q 127 1054 151 1067 q 91 998 104 1041 q 82 623 82 964 q 88 355 82 421 q 371 -82 136 -28 q 410 -86 390 -86 z "},"V":{"ha":995,"x_min":50,"x_max":969,"o":"m 460 -68 q 704 120 585 -68 q 924 749 824 309 q 969 1013 969 944 q 968 1037 969 1017 q 952 1070 967 1057 q 910 1084 938 1084 q 871 1071 886 1084 q 842 1017 856 1058 q 810 897 829 977 q 692 484 755 665 q 567 197 629 302 q 458 92 506 92 q 388 166 431 92 q 314 344 345 241 q 300 389 305 375 q 254 599 279 454 q 211 906 229 744 q 170 1055 199 1019 q 131 1074 155 1074 q 86 1060 111 1074 q 50 948 50 1044 l 50 895 q 87 613 50 844 q 106 509 98 551 q 132 394 115 466 q 410 -62 227 -9 q 460 -68 435 -68 z "},"W":{"ha":1348,"x_min":45,"x_max":1265,"o":"m 387 -55 q 652 321 528 -55 l 659 341 q 681 393 674 393 q 685 392 682 393 q 701 331 688 391 l 707 307 q 803 58 748 138 q 932 -22 857 -22 q 1120 170 1043 -22 q 1245 764 1196 362 q 1263 914 1252 831 q 1265 942 1265 928 q 1247 1013 1265 986 q 1200 1044 1227 1044 q 1179 1041 1196 1044 q 1142 981 1161 1038 q 1110 836 1122 915 q 1086 691 1097 756 q 1043 448 1073 602 q 1029 380 1034 410 q 995 255 1015 315 q 956 161 975 196 q 929 132 939 132 q 895 189 918 132 q 858 290 876 233 q 830 397 840 348 q 807 512 820 447 l 800 549 q 790 600 795 571 q 777 671 782 646 q 754 732 767 715 q 705 758 734 758 q 658 743 684 758 l 656 742 q 643 733 649 738 q 631 715 637 728 q 590 608 619 692 l 547 483 q 385 111 419 111 q 356 154 375 111 q 319 261 338 197 q 286 389 300 325 q 273 456 282 418 l 264 495 l 236 648 q 227 701 231 677 q 219 745 222 724 q 209 803 211 789 l 197 869 q 177 990 188 915 q 157 1061 170 1039 q 94 1090 140 1090 q 60 1077 72 1090 q 45 1009 45 1060 q 48 959 45 999 q 73 783 50 919 q 164 280 124 455 q 248 34 203 104 q 357 -51 292 -37 q 387 -55 372 -55 z "},"X":{"ha":910,"x_min":22,"x_max":888,"o":"m 86 -77 q 129 -62 106 -77 q 169 -15 139 -55 q 276 135 208 38 q 387 291 369 267 l 402 313 q 433 355 418 335 l 437 362 q 462 387 454 387 q 474 379 467 387 q 559 257 481 370 q 608 188 591 213 q 763 -31 707 46 q 822 -62 788 -62 q 846 -60 825 -62 q 884 -22 867 -59 q 888 -1 888 -12 l 887 12 q 808 145 884 33 q 650 375 751 229 q 591 460 603 443 l 563 503 q 553 520 553 517 q 575 555 553 524 l 823 900 q 865 963 847 934 q 876 1002 876 980 q 858 1044 876 1027 q 817 1061 840 1061 q 772 1048 791 1061 q 755 1032 765 1044 q 686 937 740 1014 l 524 711 q 480 651 488 661 q 469 641 471 641 q 464 644 467 641 q 458 652 462 648 q 401 732 442 673 q 337 821 359 790 q 233 968 252 942 l 190 1026 q 106 1088 144 1088 q 66 1066 85 1088 q 54 1034 54 1053 l 54 1022 q 161 837 55 996 q 319 606 219 751 q 360 546 343 572 q 377 517 377 519 q 366 495 377 513 q 240 318 355 477 q 28 21 33 36 q 22 -9 22 5 q 28 -39 22 -21 q 59 -70 34 -56 q 86 -77 73 -77 z "},"Y":{"ha":931,"x_min":24,"x_max":848,"o":"m 468 -112 q 582 -53 515 -112 q 718 125 650 7 q 820 378 787 243 q 848 649 848 501 q 847 744 848 659 q 814 958 846 829 q 810 971 812 964 q 806 985 808 978 l 805 991 q 733 1066 784 1066 q 686 1050 704 1066 q 655 990 667 1034 q 466 595 568 692 q 371 549 416 549 q 256 626 322 549 q 148 1006 191 704 q 115 1077 140 1055 q 84 1090 100 1090 q 24 985 24 1090 q 39 838 24 930 q 186 471 82 585 q 357 387 264 387 q 468 411 387 387 q 665 636 549 435 q 690 684 690 682 q 692 690 690 687 q 699 696 696 696 q 703 644 703 696 l 703 614 q 695 500 703 553 q 463 52 650 182 q 397 -49 397 1 q 440 -107 397 -87 q 468 -112 454 -112 z "},"Z":{"ha":770,"x_min":35,"x_max":757,"o":"m 330 -60 q 426 -58 356 -60 q 590 -40 496 -56 q 708 -3 685 -25 q 732 46 732 24 q 717 76 732 63 q 629 100 690 100 q 592 98 612 100 q 391 89 492 89 q 249 94 313 89 q 178 109 184 98 l 177 113 q 304 337 177 152 q 673 833 431 523 q 757 1000 757 939 q 585 1085 757 1085 q 492 1080 543 1085 l 429 1074 q 270 1059 332 1065 q 172 1048 208 1053 q 120 1039 136 1044 q 97 1027 103 1034 q 87 1011 91 1021 l 84 1006 q 74 970 74 986 q 134 917 74 932 q 251 907 176 907 q 469 920 346 907 q 519 924 502 924 q 541 917 541 924 q 513 872 541 906 l 498 854 q 251 518 371 690 q 81 254 132 347 q 35 104 35 168 q 54 23 35 75 q 197 -52 74 -28 q 330 -60 254 -60 z "},"[":{"ha":419,"x_min":0,"x_max":0,"o":""},"\\":{"ha":631,"x_min":0,"x_max":0,"o":""},"]":{"ha":423,"x_min":0,"x_max":0,"o":""},"^":{"ha":365,"x_min":0,"x_max":0,"o":""},"_":{"ha":694,"x_min":0,"x_max":0,"o":""},"`":{"ha":337,"x_min":0,"x_max":0,"o":""},"a":{"ha":811,"x_min":41,"x_max":739,"o":"m 662 -121 q 703 -96 681 -121 q 739 328 739 -54 q 730 529 739 422 q 674 644 720 636 q 665 648 667 646 q 661 654 662 650 q 661 670 661 659 q 623 736 661 711 q 503 767 577 767 q 400 751 454 767 q 145 557 245 699 q 41 239 45 415 q 92 43 43 115 q 258 -47 155 -47 q 394 -7 319 -47 q 545 142 470 33 q 578 183 572 183 q 583 170 583 183 q 592 -28 583 37 q 623 -107 602 -94 q 662 -121 644 -121 m 275 98 q 198 216 212 98 q 196 254 196 235 q 244 438 196 345 q 378 590 293 532 q 503 632 440 632 q 551 626 527 632 q 580 613 575 620 q 581 607 581 610 q 577 587 581 600 q 566 550 573 575 q 550 496 558 524 q 447 244 509 348 q 318 109 385 140 q 275 98 294 98 z "},"b":{"ha":890,"x_min":110,"x_max":829,"o":"m 522 -85 q 680 -25 606 -85 q 795 148 753 34 q 829 343 829 241 q 823 444 829 367 q 743 634 817 521 q 607 743 691 709 q 506 765 555 765 q 448 757 476 765 q 286 663 355 729 q 266 645 274 651 q 257 638 258 638 l 255 793 q 250 960 254 903 q 238 1038 247 1016 q 213 1070 230 1061 q 180 1080 197 1080 q 157 1077 173 1080 q 127 1051 142 1074 q 113 875 117 1029 q 110 576 110 743 q 115 162 110 322 q 129 -27 119 2 q 180 -73 150 -73 q 233 -37 210 -73 q 258 61 256 -1 l 258 86 l 275 66 q 481 -82 383 -64 q 522 -85 502 -85 m 521 68 q 392 155 461 68 q 331 252 358 199 q 297 338 303 304 q 286 389 294 359 q 283 416 283 405 l 283 425 q 319 493 283 441 q 505 620 405 620 q 666 454 623 620 q 677 357 677 406 q 670 271 677 327 q 628 153 662 214 q 547 72 595 91 q 521 68 534 68 z "},"c":{"ha":718,"x_min":58,"x_max":700,"o":"m 364 -71 q 448 -59 397 -71 q 554 -12 498 -47 q 638 64 610 22 q 656 117 656 91 q 650 146 656 132 q 595 184 629 184 q 515 148 562 184 q 371 85 437 85 q 259 142 302 85 q 216 301 216 198 q 277 518 218 429 q 418 633 335 608 q 467 641 443 641 q 581 597 526 641 q 644 570 614 570 q 666 573 648 570 q 696 604 684 576 q 700 624 700 613 q 684 671 700 645 q 548 777 632 751 q 464 790 507 790 q 349 769 418 790 q 202 669 279 749 q 81 460 115 574 q 58 307 58 382 q 69 198 58 271 q 141 44 79 125 q 307 -64 203 -37 q 364 -71 335 -71 z "},"d":{"ha":852,"x_min":58,"x_max":736,"o":"m 666 -81 q 691 -77 674 -81 q 724 -49 708 -73 q 736 189 736 -21 q 729 542 736 335 q 708 960 723 749 q 688 1062 703 1034 q 637 1090 673 1090 q 590 1070 606 1090 q 569 997 574 1050 q 566 928 566 968 q 568 849 566 893 q 569 823 568 836 q 571 762 571 780 q 566 742 570 743 l 563 741 q 550 746 558 741 l 543 749 q 435 771 489 771 q 327 749 394 771 q 185 641 259 728 q 77 425 111 554 q 58 270 58 342 q 75 139 58 218 q 155 -2 92 60 q 296 -61 216 -61 q 346 -59 300 -61 q 481 28 391 -58 q 564 131 526 75 q 581 161 581 156 q 587 167 581 167 q 591 159 589 167 q 594 73 593 149 q 603 -32 595 -3 q 631 -71 610 -60 q 666 -81 648 -81 m 295 93 q 239 132 264 93 q 212 276 213 171 q 261 486 215 397 q 376 608 307 574 q 439 623 408 623 q 519 600 479 623 q 562 563 554 581 q 564 547 564 556 q 557 512 564 532 q 444 228 499 327 q 328 101 389 129 q 295 93 310 93 z "},"e":{"ha":783,"x_min":57,"x_max":748,"o":"m 372 -58 q 545 4 453 -58 q 718 225 637 66 q 748 310 748 282 q 722 355 748 338 q 686 369 703 369 q 656 359 675 369 q 598 292 637 349 q 367 98 467 98 q 314 113 339 98 q 243 192 272 138 q 213 300 215 245 l 212 333 l 251 336 q 480 390 380 347 q 640 494 581 433 q 703 629 703 561 q 644 744 703 690 q 476 805 570 805 q 407 801 466 805 q 250 727 348 796 q 99 540 152 658 q 57 339 57 439 q 65 239 57 315 q 138 71 73 164 q 311 -51 204 -22 q 372 -58 341 -58 m 245 473 q 235 480 235 473 q 242 501 235 487 q 378 638 292 594 q 476 665 430 665 q 537 652 508 665 q 556 627 556 642 q 536 591 556 615 q 447 533 516 566 q 286 480 377 499 q 245 473 258 473 z "},"f":{"ha":637,"x_min":16,"x_max":667,"o":"m 250 -75 q 290 -49 277 -75 q 304 33 304 -24 q 298 115 304 68 q 281 316 281 258 q 299 380 281 365 q 364 399 317 395 q 491 433 460 412 q 513 471 513 447 q 509 494 513 481 q 472 536 501 527 q 429 541 456 541 q 374 538 405 541 q 320 532 342 534 q 296 530 298 530 q 290 547 290 530 q 313 686 290 590 q 464 927 369 927 q 553 881 505 927 q 613 848 586 848 q 651 867 634 848 q 667 911 667 886 q 643 982 667 937 q 547 1063 619 1027 q 456 1084 500 1084 q 340 1045 406 1084 q 215 876 275 1006 q 136 552 156 746 q 127 516 134 525 q 96 505 119 507 q 36 478 56 499 q 16 433 16 457 q 36 386 16 406 q 96 367 56 367 q 102 368 99 367 q 115 366 110 368 q 122 357 119 365 q 125 330 124 349 q 128 279 127 312 l 130 256 q 152 20 136 87 q 203 -61 168 -47 q 250 -75 231 -75 z "},"g":{"ha":828,"x_min":50,"x_max":743,"o":"m 351 -474 q 558 -375 460 -474 q 709 -67 656 -275 q 743 248 743 78 q 728 439 743 347 q 678 560 713 532 q 641 573 659 573 q 601 555 624 573 q 578 480 578 536 q 576 450 578 460 q 570 435 574 441 q 554 413 565 429 q 532 376 544 396 q 376 165 447 233 q 275 108 315 108 q 242 115 267 108 q 216 223 217 123 q 273 450 218 348 q 410 600 328 551 q 504 629 457 629 q 570 614 537 629 q 614 604 595 604 q 649 614 629 604 q 669 661 669 625 q 641 723 669 690 q 530 779 600 766 q 484 783 507 783 q 385 766 435 783 q 198 629 277 729 q 80 406 119 530 q 50 220 50 309 q 58 124 50 193 q 140 -9 65 55 q 273 -58 204 -58 q 536 104 397 -58 q 570 137 564 137 q 573 127 573 137 q 568 81 573 114 q 441 -264 531 -169 q 345 -312 397 -312 q 240 -267 296 -312 q 165 -231 199 -231 q 109 -267 133 -231 q 102 -294 102 -279 q 123 -350 102 -315 q 197 -422 144 -385 q 309 -471 249 -459 q 351 -474 330 -474 z "},"h":{"ha":909,"x_min":113,"x_max":823,"o":"m 196 -79 q 267 26 257 -79 q 280 121 272 77 l 292 180 q 369 411 319 308 q 475 577 418 515 q 586 644 536 644 q 654 576 631 644 q 670 517 665 549 q 677 425 675 485 q 682 255 680 366 q 690 18 687 40 q 738 -53 699 -39 q 755 -56 747 -56 q 805 -22 783 -56 q 823 168 823 17 q 812 412 823 281 q 780 616 801 543 q 657 768 740 736 q 595 780 627 780 q 300 556 437 780 l 294 545 q 275 519 280 519 q 268 554 270 519 q 266 679 267 590 q 265 723 265 699 q 255 962 263 883 q 227 1064 248 1042 q 195 1078 215 1078 q 170 1073 184 1078 q 163 1071 167 1072 q 139 1060 149 1067 q 123 1028 129 1052 q 116 951 118 1004 q 114 806 114 899 q 113 567 113 713 q 114 470 114 539 q 117 68 114 167 q 123 -14 119 12 q 135 -50 127 -40 q 155 -65 143 -59 q 158 -67 156 -66 q 196 -79 178 -79 z "},"i":{"ha":368,"x_min":79,"x_max":256,"o":"m 186 -53 q 228 -26 210 -53 q 252 113 246 1 q 256 275 256 176 q 254 443 256 349 q 247 678 252 601 q 229 781 241 755 q 174 812 213 812 q 125 770 143 812 q 103 500 103 718 q 109 177 103 373 q 116 34 112 81 q 130 -28 120 -12 q 161 -48 140 -44 q 186 -53 175 -53 m 157 917 q 199 923 186 917 q 255 1013 255 956 q 237 1067 255 1039 q 171 1097 219 1095 q 99 1062 123 1095 q 79 1001 79 1034 q 81 970 79 994 q 125 922 84 947 q 157 917 136 917 z "},"j":{"ha":416,"x_min":-269,"x_max":323,"o":"m -66 -471 q 92 -408 13 -471 q 232 -199 172 -345 q 314 145 293 -53 q 323 327 323 233 q 309 571 323 444 q 288 696 298 653 q 260 755 277 740 q 214 770 243 770 q 166 757 181 770 q 149 701 151 745 q 148 669 148 687 q 152 568 148 629 q 158 363 158 459 q 35 -253 158 -96 q -79 -315 -14 -315 q -146 -300 -111 -315 q -198 -289 -174 -289 q -269 -357 -269 -289 q -122 -465 -269 -429 q -66 -471 -94 -471 m 188 917 q 265 957 235 917 q 282 1010 282 984 q 227 1090 282 1066 q 196 1097 212 1097 q 148 1084 173 1097 q 102 1006 102 1054 q 104 976 102 1003 q 157 923 105 949 q 188 917 172 917 z "},"k":{"ha":753,"x_min":104,"x_max":764,"o":"m 696 -73 q 736 -58 714 -73 q 763 -8 758 -43 l 764 1 q 735 55 764 30 l 654 119 q 583 176 632 138 q 480 256 498 241 q 437 290 477 259 l 399 318 q 375 342 375 336 q 382 354 375 347 q 427 394 389 361 q 673 683 673 607 q 671 696 673 690 q 629 734 657 734 q 595 725 621 734 q 477 627 569 716 q 258 435 275 435 l 257 436 q 250 699 254 446 q 248 908 250 831 q 240 1021 245 984 q 224 1071 235 1058 q 195 1090 214 1084 q 170 1095 181 1095 q 106 1002 115 1095 q 104 852 104 961 q 108 486 104 701 q 124 12 116 68 q 174 -52 136 -40 q 190 -54 182 -54 q 244 -23 218 -54 q 257 24 255 -11 q 258 59 258 37 q 256 140 258 91 l 256 146 q 253 220 253 195 q 260 252 253 252 q 265 251 260 252 q 288 233 269 250 l 290 232 l 366 168 l 392 148 q 507 55 452 98 l 618 -33 q 641 -52 640 -50 q 661 -65 645 -56 q 696 -73 680 -73 z "},"l":{"ha":380,"x_min":110,"x_max":260,"o":"m 189 -50 q 253 -13 232 -50 q 260 248 260 9 q 257 535 260 366 q 248 861 254 704 q 235 1047 242 1017 q 175 1097 215 1097 q 116 1046 134 1096 q 110 732 110 1017 q 111 510 110 650 q 114 218 111 370 q 121 27 117 66 q 164 -45 128 -29 q 189 -50 176 -50 z "},"m":{"ha":1208,"x_min":104,"x_max":1126,"o":"m 174 -62 q 226 -34 203 -62 l 236 -19 l 241 494 l 254 516 q 336 604 287 569 q 427 640 385 640 l 464 640 l 484 618 q 544 440 526 568 q 555 265 555 362 q 550 130 555 201 q 547 41 547 77 q 548 -4 547 23 q 564 -46 550 -32 q 606 -60 577 -60 q 677 26 656 -60 q 696 277 696 106 l 696 311 q 694 414 694 334 q 695 458 694 444 q 698 479 696 473 q 705 493 701 486 l 707 498 q 807 607 754 579 q 859 621 834 621 q 915 602 882 621 q 968 501 947 582 q 982 298 982 436 q 979 181 982 240 q 974 56 974 103 q 975 9 974 41 q 990 -38 977 -22 q 1034 -54 1004 -54 q 1088 -19 1068 -54 q 1117 96 1109 16 q 1126 315 1126 176 q 1057 638 1124 521 q 885 766 989 756 q 868 767 877 767 q 664 659 770 767 q 646 644 651 644 l 642 644 q 631 661 640 644 q 476 782 576 765 q 439 785 458 785 q 271 723 357 785 q 239 704 247 704 q 234 705 238 704 q 229 730 230 705 q 180 798 219 787 q 167 799 174 799 q 111 760 136 799 q 105 721 107 751 q 104 576 104 690 q 106 174 104 318 q 111 31 107 78 q 123 -33 115 -16 q 144 -56 131 -50 q 174 -62 160 -62 z "},"n":{"ha":843,"x_min":98,"x_max":762,"o":"m 689 -58 q 712 -55 694 -58 q 752 -17 731 -52 q 762 159 762 7 q 759 298 762 218 q 733 505 755 412 q 711 577 729 522 q 528 778 650 748 q 481 783 505 783 q 272 683 380 783 q 242 659 248 659 q 238 661 241 659 q 233 694 235 662 l 233 704 q 165 814 219 814 q 144 810 155 814 q 109 786 120 805 q 98 696 98 766 q 103 528 98 638 q 111 199 109 391 q 114 64 111 170 q 118 -2 115 19 q 126 -31 121 -23 q 143 -45 132 -39 l 145 -47 q 180 -58 161 -58 l 192 -58 q 217 -45 203 -58 q 236 -27 227 -41 q 244 3 241 -18 q 250 193 248 35 l 252 411 l 264 441 q 368 596 307 547 q 462 634 416 634 q 511 626 475 634 q 575 532 547 617 q 603 401 595 473 q 613 180 611 329 q 617 53 614 96 q 624 -7 619 10 q 640 -35 629 -24 q 689 -58 662 -58 z "},"o":{"ha":758,"x_min":58,"x_max":697,"o":"m 389 -52 q 422 -48 400 -52 q 597 50 531 -28 q 685 237 663 128 q 697 351 697 294 q 682 486 697 404 q 602 652 666 568 q 429 767 537 737 q 380 772 404 772 q 257 741 327 772 q 134 635 186 710 q 58 376 58 519 q 88 197 58 290 q 189 33 119 104 q 359 -50 260 -38 l 389 -52 m 380 105 q 313 127 352 105 q 240 218 273 149 q 205 379 207 286 q 247 551 208 486 q 345 627 286 617 q 364 629 355 629 q 466 580 414 629 q 545 355 545 495 q 523 225 545 296 q 435 119 501 155 q 380 105 408 105 z "},"p":{"ha":913,"x_min":114,"x_max":854,"o":"m 193 -456 q 254 -417 228 -456 l 267 -395 l 268 -155 l 269 60 q 270 102 269 81 q 271 117 270 114 q 273 120 271 120 q 302 88 276 120 q 478 -22 381 -9 q 513 -24 496 -24 q 673 27 592 -24 q 807 184 753 77 q 854 397 854 278 q 853 434 854 416 q 749 701 838 610 q 561 781 669 781 q 480 775 549 781 q 288 645 412 769 q 268 629 274 629 q 264 630 267 629 q 259 659 260 632 q 192 786 245 786 q 157 775 176 786 q 136 757 144 768 q 123 719 127 746 q 116 638 118 692 q 114 380 114 574 q 115 -78 114 113 q 125 -385 116 -321 q 138 -431 130 -419 q 160 -448 146 -442 q 193 -456 178 -456 m 520 132 q 430 178 477 132 q 330 381 382 224 l 303 459 l 317 480 q 432 590 359 541 q 556 642 504 639 q 632 611 601 642 q 680 530 663 580 q 698 411 698 473 q 685 304 698 358 q 644 207 673 251 q 570 143 615 163 q 520 132 544 132 z "},"q":{"ha":861,"x_min":50,"x_max":757,"o":"m 680 -480 q 711 -473 691 -480 q 747 -433 731 -467 l 757 -408 l 755 84 q 754 362 755 274 q 749 574 753 528 q 741 609 746 599 q 729 626 736 618 l 709 652 q 690 675 698 665 q 545 770 627 755 q 500 774 523 774 q 366 740 440 774 q 217 626 291 706 q 97 436 143 546 q 50 201 50 326 q 97 8 50 75 q 235 -66 149 -66 q 390 -15 304 -66 q 567 154 475 37 q 575 165 571 160 q 595 185 589 185 q 602 167 600 185 q 606 97 605 149 q 607 -49 606 45 l 607 -145 q 610 -382 607 -316 q 624 -454 612 -440 q 638 -466 629 -460 l 642 -468 q 680 -480 661 -480 m 251 92 q 224 107 237 92 q 211 203 211 123 q 248 390 212 302 q 340 537 283 477 q 459 612 396 596 q 493 617 477 617 q 575 587 536 617 q 611 536 611 559 q 596 490 611 520 q 537 388 582 460 q 410 214 477 292 q 294 107 343 136 q 251 92 269 92 z "},"r":{"ha":730,"x_min":102,"x_max":729,"o":"m 182 -57 q 201 -52 189 -57 q 239 -26 228 -45 q 253 50 251 -7 q 254 102 254 71 q 252 230 254 153 q 250 350 250 300 q 252 433 250 389 q 270 508 254 477 q 323 574 286 538 q 467 651 400 651 q 598 585 530 651 q 682 541 647 541 q 706 544 686 541 q 729 589 727 547 l 729 592 q 682 687 729 632 q 465 791 585 791 q 258 703 355 791 q 243 691 248 691 q 237 700 239 691 q 232 735 235 709 q 197 808 224 787 q 170 817 184 817 q 136 805 154 817 l 132 803 q 115 787 121 796 q 106 751 109 777 q 103 667 103 724 q 102 508 102 610 q 105 193 102 328 q 113 40 107 91 q 132 -28 119 -10 q 165 -52 144 -47 l 179 -57 l 182 -57 z "},"s":{"ha":732,"x_min":52,"x_max":677,"o":"m 389 -62 q 541 -22 466 -62 q 656 92 616 18 q 677 174 677 132 q 661 245 677 209 q 577 345 634 304 q 406 425 521 385 q 317 456 343 446 q 227 526 245 482 q 221 552 221 538 q 250 616 221 583 q 366 659 293 659 q 419 656 374 659 q 536 600 465 654 q 613 562 581 562 q 651 580 636 562 q 666 619 666 599 q 644 674 666 640 q 557 747 623 708 q 407 800 491 785 q 353 804 379 804 q 225 777 290 804 q 113 692 159 750 q 62 553 62 628 q 111 427 62 488 q 184 365 140 389 q 330 304 228 340 q 507 219 468 257 q 527 178 527 200 q 508 132 527 156 q 378 71 464 71 q 278 94 333 71 q 181 174 223 116 q 109 221 148 221 q 64 198 83 221 q 52 161 52 182 q 138 30 52 100 q 261 -39 191 -14 q 294 -50 281 -43 q 345 -59 313 -55 q 389 -62 367 -62 z "},"t":{"ha":509,"x_min":-54,"x_max":569,"o":"m 240 -53 q 264 -49 248 -53 q 306 7 297 -42 q 313 225 313 52 q 310 603 313 321 l 309 709 q 309 816 309 752 l 404 820 q 504 829 471 824 q 550 846 538 835 q 566 878 563 857 q 569 896 569 887 q 538 939 569 926 q 439 953 508 953 l 301 949 l 302 991 q 292 1048 302 1023 q 234 1088 275 1088 q 194 1069 214 1088 q 170 1001 173 1051 q 165 954 170 962 q 137 944 159 946 q 66 940 115 941 q -54 877 -54 932 q -51 856 -54 867 q -22 818 -43 827 q 64 809 -1 809 l 163 809 l 168 397 q 170 188 168 323 q 172 92 172 148 l 172 54 q 212 -47 172 -28 q 240 -53 225 -53 z "},"u":{"ha":805,"x_min":85,"x_max":736,"o":"m 406 -56 q 556 1 481 -56 q 684 203 632 58 q 736 569 736 351 q 718 736 736 684 q 652 789 699 789 q 612 778 625 789 q 594 736 598 767 q 591 682 591 715 l 593 610 q 565 335 593 459 q 489 143 537 212 q 404 85 448 85 q 365 93 396 85 q 290 214 334 100 q 261 337 272 260 q 241 560 250 414 q 225 731 233 676 q 202 800 218 785 q 170 811 191 811 q 155 810 163 811 q 94 746 108 808 q 85 635 85 709 q 90 514 85 584 q 162 119 102 254 q 337 -46 222 -17 q 406 -56 373 -56 z "},"v":{"ha":743,"x_min":46,"x_max":732,"o":"m 346 -51 q 438 2 391 -51 q 551 228 486 54 l 578 301 l 629 438 q 719 678 681 581 q 732 732 732 709 q 697 785 732 769 q 668 793 682 793 q 640 784 656 793 q 595 714 624 774 q 516 525 566 653 l 448 351 q 385 194 400 229 q 345 124 354 124 q 309 208 334 130 q 254 401 284 286 q 198 637 224 517 q 171 749 182 713 q 143 793 159 785 q 121 798 134 798 q 99 795 111 798 q 51 748 62 790 q 46 701 46 730 q 58 591 46 665 q 111 353 70 517 q 205 67 160 160 q 305 -43 250 -26 q 346 -51 326 -51 z "},"w":{"ha":996,"x_min":67,"x_max":920,"o":"m 663 -66 q 767 -17 711 -66 q 866 159 823 33 q 920 498 920 323 q 877 754 920 650 q 817 800 854 800 q 797 799 817 800 q 762 751 777 799 q 758 727 758 741 q 764 666 758 711 q 772 529 772 597 q 754 328 772 446 q 685 121 737 210 q 667 106 675 106 q 611 293 635 106 q 599 384 604 351 q 591 433 594 416 q 583 458 587 450 q 571 476 578 467 q 519 509 545 509 q 477 490 505 509 q 424 372 449 470 q 364 177 393 252 q 317 102 334 102 q 269 185 294 102 q 226 386 243 269 q 207 614 208 503 q 204 695 206 668 q 195 734 201 723 q 174 751 188 745 q 148 758 160 758 q 92 710 112 758 q 67 547 67 653 q 69 463 67 534 q 108 225 71 393 q 206 1 143 74 q 317 -59 258 -59 q 370 -50 328 -59 q 471 70 412 -41 q 495 106 490 106 q 508 83 501 106 q 620 -58 544 -29 q 663 -66 642 -66 z "},"x":{"ha":779,"x_min":2,"x_max":747,"o":"m 703 -54 q 737 -16 715 -54 q 747 14 747 -2 q 727 63 746 30 q 661 162 708 97 q 532 340 614 227 q 526 349 528 345 q 508 382 508 372 q 516 402 508 391 q 563 456 524 413 q 698 615 656 561 q 740 694 740 669 q 709 735 740 719 q 680 745 696 745 q 641 730 665 745 q 544 636 616 715 q 422 509 441 524 q 414 507 417 507 q 347 591 412 507 q 236 735 275 689 q 174 789 197 781 q 157 792 165 792 q 127 783 142 792 q 93 741 93 769 q 126 660 93 715 q 239 498 159 604 l 285 434 q 309 390 309 399 q 308 387 309 389 q 273 348 307 385 q 148 209 220 293 q 29 67 75 125 q 2 7 2 33 q 33 -39 2 -21 q 63 -49 48 -49 q 94 -40 75 -49 q 156 16 114 -31 l 237 105 q 353 229 315 195 q 399 252 380 252 q 422 243 408 252 q 473 180 437 234 q 510 128 488 157 q 623 -11 582 32 q 689 -54 664 -54 l 703 -54 z "},"y":{"ha":842,"x_min":66,"x_max":741,"o":"m 376 -454 q 415 -452 391 -454 q 447 -447 439 -450 q 665 -218 595 -387 q 740 258 735 -49 l 741 343 q 661 786 741 747 q 632 793 646 793 q 593 770 612 793 q 556 658 574 747 q 509 459 530 534 q 496 412 501 435 q 490 397 494 401 q 486 385 486 395 q 482 370 486 375 q 473 347 480 368 l 463 319 q 450 290 457 307 q 398 197 427 232 q 348 161 370 161 q 292 224 325 161 q 215 492 237 326 q 203 634 203 580 q 204 655 203 647 q 205 671 205 663 q 180 730 205 709 q 142 745 163 745 q 110 737 127 745 q 66 579 66 707 q 110 290 66 456 q 234 60 155 128 q 348 12 289 12 q 430 32 374 12 q 556 186 487 51 q 581 227 575 227 q 585 205 585 227 q 582 147 585 185 q 363 -304 551 -304 q 245 -269 311 -304 q 184 -250 211 -250 q 149 -258 172 -250 q 127 -311 127 -266 q 191 -392 127 -347 q 330 -453 254 -436 q 355 -454 339 -454 l 376 -454 z "},"z":{"ha":713,"x_min":20,"x_max":692,"o":"m 248 -66 q 355 -60 271 -66 q 542 -45 473 -52 q 643 -31 610 -39 q 683 -11 675 -23 q 692 23 692 2 q 678 67 692 53 q 627 84 665 81 q 594 85 612 85 q 517 82 562 85 q 262 71 364 71 q 210 74 215 71 l 209 77 q 265 161 209 92 q 467 390 321 231 q 584 517 519 445 q 666 668 666 609 q 376 781 666 781 q 28 724 63 781 q 20 700 20 711 q 38 665 20 682 q 136 639 66 639 q 181 641 153 639 q 424 650 353 650 q 493 633 493 650 l 492 625 q 438 562 492 615 q 179 277 266 379 q 68 120 92 174 q 53 58 53 86 q 58 26 53 41 q 185 -60 79 -47 q 248 -66 220 -66 z "},"{":{"ha":549,"x_min":0,"x_max":0,"o":""},"|":{"ha":163,"x_min":0,"x_max":0,"o":""},"}":{"ha":583,"x_min":0,"x_max":0,"o":""},"~":{"ha":652,"x_min":0,"x_max":0,"o":""},"¡":{"ha":201,"x_min":0,"x_max":0,"o":""},"¢":{"ha":783,"x_min":0,"x_max":0,"o":""},"£":{"ha":949,"x_min":0,"x_max":0,"o":""},"¤":{"ha":862,"x_min":0,"x_max":0,"o":""},"¥":{"ha":935,"x_min":0,"x_max":0,"o":""},"¦":{"ha":193,"x_min":0,"x_max":0,"o":""},"§":{"ha":715,"x_min":0,"x_max":0,"o":""},"¨":{"ha":418,"x_min":0,"x_max":0,"o":""},"©":{"ha":768,"x_min":0,"x_max":0,"o":""},"ª":{"ha":452,"x_min":0,"x_max":0,"o":""},"«":{"ha":783,"x_min":0,"x_max":0,"o":""},"¬":{"ha":739,"x_min":0,"x_max":0,"o":""},"®":{"ha":793,"x_min":0,"x_max":0,"o":""},"¯":{"ha":558,"x_min":0,"x_max":0,"o":""},"°":{"ha":346,"x_min":0,"x_max":0,"o":""},"±":{"ha":627,"x_min":0,"x_max":0,"o":""},"²":{"ha":402,"x_min":0,"x_max":0,"o":""},"³":{"ha":535,"x_min":0,"x_max":0,"o":""},"´":{"ha":336,"x_min":0,"x_max":0,"o":""},"µ":{"ha":510,"x_min":0,"x_max":0,"o":""},"¶":{"ha":738,"x_min":0,"x_max":0,"o":""},"·":{"ha":191,"x_min":0,"x_max":0,"o":""},"¸":{"ha":509,"x_min":0,"x_max":0,"o":""},"¹":{"ha":165,"x_min":0,"x_max":0,"o":""},"º":{"ha":468,"x_min":0,"x_max":0,"o":""},"»":{"ha":808,"x_min":0,"x_max":0,"o":""},"¼":{"ha":998,"x_min":0,"x_max":0,"o":""},"½":{"ha":971,"x_min":0,"x_max":0,"o":""},"¾":{"ha":1123,"x_min":0,"x_max":0,"o":""},"¿":{"ha":654,"x_min":0,"x_max":0,"o":""},"À":{"ha":880,"x_min":0,"x_max":0,"o":""},"Á":{"ha":880,"x_min":0,"x_max":0,"o":""},"Â":{"ha":880,"x_min":0,"x_max":0,"o":""},"Ã":{"ha":880,"x_min":0,"x_max":0,"o":""},"Ä":{"ha":880,"x_min":0,"x_max":0,"o":""},"Å":{"ha":880,"x_min":0,"x_max":0,"o":""},"Æ":{"ha":1222,"x_min":0,"x_max":0,"o":""},"Ç":{"ha":815,"x_min":0,"x_max":0,"o":""},"È":{"ha":665,"x_min":0,"x_max":0,"o":""},"É":{"ha":665,"x_min":0,"x_max":0,"o":""},"Ê":{"ha":665,"x_min":0,"x_max":0,"o":""},"Ë":{"ha":665,"x_min":0,"x_max":0,"o":""},"Ì":{"ha":411,"x_min":0,"x_max":0,"o":""},"Í":{"ha":411,"x_min":0,"x_max":0,"o":""},"Î":{"ha":411,"x_min":0,"x_max":0,"o":""},"Ï":{"ha":411,"x_min":0,"x_max":0,"o":""},"Ð":{"ha":870,"x_min":0,"x_max":0,"o":""},"Ñ":{"ha":894,"x_min":0,"x_max":0,"o":""},"Ò":{"ha":928,"x_min":0,"x_max":0,"o":""},"Ó":{"ha":928,"x_min":0,"x_max":0,"o":""},"Ô":{"ha":928,"x_min":0,"x_max":0,"o":""},"Õ":{"ha":928,"x_min":0,"x_max":0,"o":""},"Ö":{"ha":928,"x_min":0,"x_max":0,"o":""},"×":{"ha":646,"x_min":0,"x_max":0,"o":""},"Ø":{"ha":928,"x_min":0,"x_max":0,"o":""},"Ù":{"ha":899,"x_min":0,"x_max":0,"o":""},"Ú":{"ha":899,"x_min":0,"x_max":0,"o":""},"Û":{"ha":899,"x_min":0,"x_max":0,"o":""},"Ü":{"ha":899,"x_min":0,"x_max":0,"o":""},"Ý":{"ha":931,"x_min":0,"x_max":0,"o":""},"Þ":{"ha":700,"x_min":0,"x_max":0,"o":""},"ß":{"ha":897,"x_min":0,"x_max":0,"o":""},"à":{"ha":811,"x_min":0,"x_max":0,"o":""},"á":{"ha":811,"x_min":0,"x_max":0,"o":""},"â":{"ha":811,"x_min":0,"x_max":0,"o":""},"ã":{"ha":811,"x_min":0,"x_max":0,"o":""},"ä":{"ha":811,"x_min":0,"x_max":0,"o":""},"å":{"ha":811,"x_min":0,"x_max":0,"o":""},"æ":{"ha":1389,"x_min":0,"x_max":0,"o":""},"ç":{"ha":718,"x_min":0,"x_max":0,"o":""},"è":{"ha":783,"x_min":0,"x_max":0,"o":""},"é":{"ha":783,"x_min":0,"x_max":0,"o":""},"ê":{"ha":783,"x_min":0,"x_max":0,"o":""},"ë":{"ha":783,"x_min":0,"x_max":0,"o":""},"ì":{"ha":368,"x_min":0,"x_max":0,"o":""},"í":{"ha":368,"x_min":0,"x_max":0,"o":""},"î":{"ha":368,"x_min":0,"x_max":0,"o":""},"ï":{"ha":368,"x_min":0,"x_max":0,"o":""},"ð":{"ha":644,"x_min":0,"x_max":0,"o":""},"ñ":{"ha":843,"x_min":0,"x_max":0,"o":""},"ò":{"ha":758,"x_min":0,"x_max":0,"o":""},"ó":{"ha":758,"x_min":0,"x_max":0,"o":""},"ô":{"ha":758,"x_min":0,"x_max":0,"o":""},"õ":{"ha":758,"x_min":0,"x_max":0,"o":""},"ö":{"ha":758,"x_min":0,"x_max":0,"o":""},"÷":{"ha":683,"x_min":0,"x_max":0,"o":""},"ø":{"ha":758,"x_min":0,"x_max":0,"o":""},"ù":{"ha":805,"x_min":0,"x_max":0,"o":""},"ú":{"ha":805,"x_min":0,"x_max":0,"o":""},"û":{"ha":805,"x_min":0,"x_max":0,"o":""},"ü":{"ha":805,"x_min":0,"x_max":0,"o":""},"ý":{"ha":842,"x_min":0,"x_max":0,"o":""},"þ":{"ha":764,"x_min":0,"x_max":0,"o":""},"ÿ":{"ha":842,"x_min":0,"x_max":0,"o":""},"ı":{"ha":338,"x_min":0,"x_max":0,"o":""},"̀":{"ha":336,"x_min":0,"x_max":0,"o":""},"́":{"ha":294,"x_min":0,"x_max":0,"o":""},"̂":{"ha":395,"x_min":0,"x_max":0,"o":""},"̃":{"ha":559,"x_min":0,"x_max":0,"o":""},"̄":{"ha":562,"x_min":0,"x_max":0,"o":""},"̇":{"ha":185,"x_min":0,"x_max":0,"o":""},"̈":{"ha":416,"x_min":0,"x_max":0,"o":""},"̊":{"ha":294,"x_min":0,"x_max":0,"o":""},"̌":{"ha":394,"x_min":0,"x_max":0,"o":""},"̧":{"ha":519,"x_min":0,"x_max":0,"o":""},"–":{"ha":819,"x_min":0,"x_max":0,"o":""},"—":{"ha":1188,"x_min":0,"x_max":0,"o":""},"‘":{"ha":205,"x_min":0,"x_max":0,"o":""},"’":{"ha":228,"x_min":0,"x_max":0,"o":""},"‚":{"ha":228,"x_min":0,"x_max":0,"o":""},"“":{"ha":426,"x_min":0,"x_max":0,"o":""},"”":{"ha":426,"x_min":0,"x_max":0,"o":""},"„":{"ha":426,"x_min":0,"x_max":0,"o":""},"†":{"ha":645,"x_min":0,"x_max":0,"o":""},"‡":{"ha":819,"x_min":0,"x_max":0,"o":""},"•":{"ha":275,"x_min":0,"x_max":0,"o":""},"…":{"ha":616,"x_min":0,"x_max":0,"o":""},"‹":{"ha":412,"x_min":0,"x_max":0,"o":""},"›":{"ha":465,"x_min":0,"x_max":0,"o":""},"⁄":{"ha":788,"x_min":0,"x_max":0,"o":""},"₣":{"ha":755,"x_min":0,"x_max":0,"o":""},"₤":{"ha":985,"x_min":0,"x_max":0,"o":""},"₧":{"ha":1846,"x_min":0,"x_max":0,"o":""},"€":{"ha":708,"x_min":0,"x_max":0,"o":""},"№":{"ha":1235,"x_min":0,"x_max":0,"o":""},"™":{"ha":909,"x_min":0,"x_max":0,"o":""},"∂":{"ha":749,"x_min":0,"x_max":0,"o":""},"∆":{"ha":798,"x_min":0,"x_max":0,"o":""},"∏":{"ha":1017,"x_min":0,"x_max":0,"o":""},"∑":{"ha":672,"x_min":0,"x_max":0,"o":""},"−":{"ha":694,"x_min":0,"x_max":0,"o":""},"√":{"ha":950,"x_min":0,"x_max":0,"o":""},"∞":{"ha":1082,"x_min":0,"x_max":0,"o":""},"∫":{"ha":432,"x_min":0,"x_max":0,"o":""},"≈":{"ha":920,"x_min":0,"x_max":0,"o":""},"≤":{"ha":587,"x_min":0,"x_max":0,"o":""},"≥":{"ha":611,"x_min":0,"x_max":0,"o":""},"ﬁ":{"ha":1026,"x_min":0,"x_max":0,"o":""},"ﬂ":{"ha":1010,"x_min":0,"x_max":0,"o":""}}}
